<svg width="47" height="47" viewBox="0 0 47 47" fill="none" xmlns="http://www.w3.org/2000/svg">
<path d="M23.4984 3.69854e-06C26.5802 -0.00172704 29.6322 0.603987 32.4797 1.78252C38.2451 4.18032 42.8244 8.76651 45.2135 14.5355L45.2518 14.6273C47.5959 20.3577 47.5822 26.7819 45.2135 32.5022C42.8289 38.2551 38.2578 42.8259 32.5047 45.2101C26.7516 47.5943 20.2872 47.5967 14.5323 45.2169C11.6708 44.0387 9.07071 42.3058 6.88209 40.118C4.69698 37.9352 2.9631 35.3434 1.77939 32.4907L1.74496 32.3989C-0.593518 26.6717 -0.581149 20.2537 1.77939 14.5355C2.9593 11.6739 4.69346 9.07398 6.88209 6.88524C9.06489 4.70012 11.6566 2.96623 14.5094 1.78252L14.6012 1.74809C17.4251 0.592526 20.4472 -0.00125093 23.4984 3.69854e-06ZM18.6558 30.559C18.4719 30.3636 18.3007 30.1566 18.1432 29.9393C17.1487 28.5776 16.2574 27.0399 15.3624 25.6054C14.7121 24.6492 14.3717 23.7962 14.3717 23.1115C14.3717 22.4268 14.7542 21.5317 15.5192 21.3366C15.4093 19.8436 15.3863 18.3454 15.4503 16.8497C15.4933 16.4688 15.5701 16.0924 15.6798 15.7251C16.1539 14.1781 17.1877 12.8633 18.5793 12.0377C19.0711 11.7212 19.5989 11.4644 20.1514 11.2727C21.1421 10.8902 20.664 9.39453 21.7541 9.3601C24.3016 9.30655 28.5016 11.4754 30.1388 13.2656C31.186 14.4204 31.781 15.9146 31.8142 17.4732L31.7109 21.5164C31.9337 21.572 32.1372 21.6871 32.2996 21.8495C32.462 22.0119 32.5771 22.2154 32.6327 22.4382C32.7704 22.9852 32.6327 23.735 32.1546 24.7945C32.1546 24.8289 32.1202 24.8289 32.1202 24.8634C31.0683 26.5962 29.9705 28.6043 28.7617 30.2186C28.1535 31.0295 27.6524 30.888 28.1727 31.6645C30.6399 35.0573 35.5092 34.5869 38.5005 36.8475C40.9874 34.0382 42.6402 30.5902 43.2728 26.8921C43.9054 23.1939 43.4925 19.3925 42.0808 15.9164L42.0463 15.8399C41.0375 13.3979 39.5585 11.178 37.6934 9.30655C34.8929 6.51295 31.3315 4.60628 27.4539 3.82463C23.5762 3.04298 19.5543 3.421 15.8902 4.91147L15.8099 4.9459C13.3774 5.959 11.1679 7.44068 9.30721 9.30655C6.51363 12.1071 4.60696 15.6685 3.82532 19.5461C3.04367 23.4237 3.42169 27.4457 4.91216 31.1098L4.94658 31.1901C5.8044 33.2555 7.00016 35.1635 8.48481 36.836C11.4875 34.5754 16.3569 35.0459 18.8126 31.653C19.241 31.0104 19.1301 31.0716 18.6443 30.559H18.6558Z" fill="black"/>
</svg>
