<svg width="20" height="20" viewBox="0 0 20 20" fill="none" xmlns="http://www.w3.org/2000/svg">
<path fill-rule="evenodd" clip-rule="evenodd" d="M16.5347 2.39262L17.9699 3.82802C18.3477 4.2058 18.3477 4.82381 17.9699 5.20158L16.8141 6.35736C17.133 6.95275 17.3763 7.59453 17.5311 8.27015H19.0283C19.5627 8.27015 19.9998 8.70734 19.9998 9.24152V11.2713C19.9998 11.8057 19.5627 12.2429 19.0283 12.2429H17.3944C17.194 12.9042 16.9074 13.5281 16.5474 14.1013L17.6073 15.1609C17.985 15.539 17.985 16.157 17.6073 16.5346L16.172 17.97C15.7943 18.3476 15.1761 18.3476 14.7985 17.97L13.6426 16.8141C13.0474 17.1331 12.4054 17.3766 11.7297 17.5312V19.0285C11.7297 19.5627 11.2926 19.9998 10.7583 19.9998H8.72868C8.19434 19.9998 7.75716 19.5627 7.75716 19.0285V17.3945C7.09587 17.194 6.47201 16.9073 5.89893 16.5473L4.83919 17.6072C4.4611 17.985 3.8431 17.985 3.46533 17.6072L2.03011 16.172C1.65234 15.7942 1.65234 15.1762 2.03011 14.7984L3.18604 13.6425C2.86702 13.0473 2.62354 12.4055 2.46908 11.7298H0.971354C0.437174 11.7298 0 11.2928 0 10.7585V8.72866C0 8.19431 0.437174 7.75729 0.971354 7.75729H2.60531C2.80583 7.09598 3.09245 6.47211 3.45231 5.89886L2.39258 4.83927C2.01481 4.46134 2.01481 3.84316 2.39258 3.46555L3.82796 2.03014C4.20573 1.65237 4.82373 1.65237 5.2015 2.03014L6.35726 3.18592C6.95264 2.86691 7.5944 2.62342 8.27018 2.46879V0.971533C8.27018 0.437182 8.70736 0 9.24154 0H11.2713C11.8055 0 12.2427 0.437182 12.2427 0.971533V2.60502C12.9041 2.80538 13.5282 3.09201 14.1017 3.45204L15.1608 2.39262C15.5389 2.01484 16.1569 2.01484 16.5347 2.39262ZM10 6.00921C12.2038 6.00921 13.9907 7.79635 13.9907 10C13.9907 12.2035 12.2038 13.9908 10 13.9908C7.79639 13.9908 6.00928 12.2036 6.00928 10C6.00928 7.79635 7.79639 6.00921 10 6.00921Z" fill="black"/>
</svg>
