<svg version="1.1" id="Layer_1" xmlns="http://www.w3.org/2000/svg" xmlns:xlink="http://www.w3.org/1999/xlink" x="0px" y="0px"
	 width="100%" viewBox="0 0 500 500" enable-background="new 0 0 500 500" xml:space="preserve">
<path fill="#000000" opacity="1.000000" stroke="none" 
	d="
M331.000000,501.000000 
	C220.666687,501.000000 110.833389,501.000000 1.000059,501.000000 
	C1.000039,334.333405 1.000039,167.666794 1.000020,1.000148 
	C167.666565,1.000099 334.333130,1.000099 500.999756,1.000049 
	C500.999847,167.666519 500.999847,334.333038 500.999939,500.999786 
	C444.500000,501.000000 388.000000,501.000000 331.000000,501.000000 
M340.142700,107.361031 
	C344.210388,101.297295 348.633026,95.436844 352.252686,89.116524 
	C356.439270,81.806305 360.160156,74.199173 363.602417,66.505814 
	C365.291016,62.731876 362.489990,58.439007 358.286865,56.995060 
	C352.608185,55.044197 350.056152,56.090508 347.921204,60.806011 
	C346.583069,63.761604 344.939484,66.599869 343.218933,69.357246 
	C338.799927,76.439240 334.565857,83.671623 329.616791,90.370232 
	C327.713989,92.945663 324.074158,94.237724 320.403229,96.022926 
	C309.743988,92.365265 298.958252,91.692528 288.093597,94.936279 
	C275.565063,98.676811 266.435028,106.695824 258.754791,117.153580 
	C253.174637,124.751770 248.639679,132.680389 245.053543,141.349274 
	C243.026596,146.249084 240.609268,151.545074 234.639206,152.876770 
	C219.735687,156.201172 207.383270,163.218094 198.193100,175.763565 
	C192.118073,184.056595 187.561417,192.917786 184.998459,202.843201 
	C183.351334,209.221893 182.819550,215.832413 184.117920,222.140610 
	C185.735596,230.000092 184.895294,236.676575 180.200668,243.394379 
	C172.531952,254.367966 167.060867,266.238556 167.905350,280.249908 
	C168.209641,285.298584 166.214066,290.713898 167.386642,295.435760 
	C169.990112,305.919678 173.213776,316.320343 180.362106,325.019348 
	C183.949921,329.385437 187.389908,334.186127 189.489883,339.361145 
	C191.125504,343.391724 190.856003,348.298706 190.959595,352.827026 
	C191.201996,363.421936 193.932922,373.792694 199.237091,382.383942 
	C208.979858,398.164368 223.087006,409.136200 241.918045,413.208191 
	C246.006485,414.092316 250.866470,416.085815 253.246445,419.194794 
	C257.839508,425.194824 262.352264,430.942902 268.232635,435.870697 
	C279.058868,444.943146 291.640228,449.615356 305.252533,449.743164 
	C319.314667,449.875244 332.080536,445.381592 342.267670,434.343567 
	C355.086487,420.453949 356.931854,402.864319 351.537872,388.611633 
	C345.897766,373.708588 334.648651,363.245911 319.307861,358.103699 
	C310.268097,355.073608 303.040924,350.115753 300.217133,340.927765 
	C297.045837,330.609161 290.887543,322.937714 282.381409,316.789764 
	C276.385925,312.456421 274.750610,307.412323 276.938477,300.370300 
	C277.517395,298.506775 277.741241,296.530396 278.093903,294.599579 
	C279.697052,285.822083 278.439728,277.351776 276.344604,268.724365 
	C274.974640,263.083282 275.536591,257.263153 280.656769,252.551208 
	C284.943390,248.606384 289.127716,244.071442 291.811157,238.982483 
	C295.317505,232.333054 297.333099,224.892181 299.926270,217.768585 
	C301.422546,213.658356 303.403412,210.206573 307.520447,207.888123 
	C315.275635,203.520889 323.383575,199.402588 330.133270,193.737259 
	C336.434601,188.448273 341.691589,181.655396 346.449158,174.853638 
	C352.184753,166.653564 354.404053,156.932800 354.791199,147.006287 
	C354.995636,141.764542 354.933197,136.241791 353.514771,131.266891 
	C351.002319,122.454964 346.258362,114.625519 340.142700,107.361031 
z"/>
<path fill="#A86642" opacity="1.000000" stroke="none" 
	d="
M339.791046,107.975075 
	C346.258362,114.625519 351.002319,122.454964 353.514771,131.266891 
	C354.933197,136.241791 354.995636,141.764542 354.791199,147.006287 
	C354.404053,156.932800 352.184753,166.653564 346.449158,174.853638 
	C341.691589,181.655396 336.434601,188.448273 330.133270,193.737259 
	C323.383575,199.402588 315.275635,203.520889 307.520447,207.888123 
	C303.403412,210.206573 301.422546,213.658356 299.926270,217.768585 
	C297.333099,224.892181 295.317505,232.333054 291.811157,238.982483 
	C289.127716,244.071442 284.943390,248.606384 280.656769,252.551208 
	C275.536591,257.263153 274.974640,263.083282 276.344604,268.724365 
	C278.439728,277.351776 279.697052,285.822083 278.093903,294.599579 
	C277.741241,296.530396 277.517395,298.506775 276.938477,300.370300 
	C274.750610,307.412323 276.385925,312.456421 282.381409,316.789764 
	C290.887543,322.937714 297.045837,330.609161 300.217133,340.927765 
	C303.040924,350.115753 310.268097,355.073608 319.307861,358.103699 
	C334.648651,363.245911 345.897766,373.708588 351.537872,388.611633 
	C356.931854,402.864319 355.086487,420.453949 342.267670,434.343567 
	C332.080536,445.381592 319.314667,449.875244 305.252533,449.743164 
	C291.640228,449.615356 279.058868,444.943146 268.232635,435.870697 
	C262.352264,430.942902 257.839508,425.194824 253.246445,419.194794 
	C250.866470,416.085815 246.006485,414.092316 241.918045,413.208191 
	C223.087006,409.136200 208.979858,398.164368 199.237091,382.383942 
	C193.932922,373.792694 191.201996,363.421936 190.959595,352.827026 
	C190.856003,348.298706 191.125504,343.391724 189.489883,339.361145 
	C187.389908,334.186127 183.949921,329.385437 180.362106,325.019348 
	C173.213776,316.320343 169.990112,305.919678 167.386642,295.435760 
	C166.214066,290.713898 168.209641,285.298584 167.905350,280.249908 
	C167.060867,266.238556 172.531952,254.367966 180.200668,243.394379 
	C184.895294,236.676575 185.735596,230.000092 184.117920,222.140610 
	C182.819550,215.832413 183.351334,209.221893 184.998459,202.843201 
	C187.561417,192.917786 192.118073,184.056595 198.193100,175.763565 
	C207.383270,163.218094 219.735687,156.201172 234.639206,152.876770 
	C240.609268,151.545074 243.026596,146.249084 245.053543,141.349274 
	C248.639679,132.680389 253.174637,124.751770 258.754791,117.153580 
	C266.435028,106.695824 275.565063,98.676811 288.093597,94.936279 
	C298.958252,91.692528 309.743988,92.365265 321.010162,96.313141 
	C322.498840,97.781990 323.176483,99.223892 324.297974,100.093323 
	C328.944733,103.695786 331.949097,110.645958 339.791046,107.975075 
M235.506241,397.538666 
	C239.712677,399.047577 243.840607,400.850372 248.143143,401.999603 
	C255.391586,403.935669 261.072357,407.592010 265.108856,414.129028 
	C267.153687,417.440613 270.326965,420.055359 273.257172,423.606720 
	C274.400513,424.779602 275.424622,426.106140 276.706207,427.100891 
	C286.301331,434.548248 297.160614,437.227814 309.311005,437.169708 
	C325.101807,437.094147 347.125092,419.669647 341.424683,396.085754 
	C340.102356,390.614929 338.063538,384.804474 331.889709,381.327057 
	C325.841522,371.910614 316.320953,368.711670 305.743500,366.295563 
	C304.678162,365.276550 303.501373,364.349945 302.566742,363.222534 
	C298.486969,358.301239 293.038025,353.900879 290.758392,348.236023 
	C286.689514,338.124939 280.908234,330.029510 272.276642,323.498199 
	C265.744507,318.555511 261.390961,312.065247 263.347992,303.237122 
	C265.881409,291.808716 265.231445,280.445770 263.379730,269.021210 
	C261.881348,259.776917 263.560455,251.027161 270.890045,244.849030 
	C279.909637,237.246414 285.047821,227.553452 287.338257,216.504028 
	C289.655151,205.326843 296.680420,198.749176 306.149658,194.140396 
	C315.251648,189.710342 323.373840,184.150162 330.035400,176.482895 
	C342.071381,162.629822 346.715973,147.195724 340.013489,129.437042 
	C339.247345,127.407097 337.376495,125.794083 335.706543,123.372421 
	C328.486877,110.640892 317.322052,104.986336 302.096710,105.058105 
	C290.150909,105.261635 280.918610,111.137360 272.756348,119.174782 
	C263.197723,128.587219 258.756226,140.871170 253.450150,153.379364 
	C249.952240,156.517014 246.454330,159.654678 242.229996,163.023560 
	C239.537979,163.866898 236.809143,164.608658 234.159805,165.569611 
	C212.860687,173.295059 199.176041,187.551559 197.066589,210.765991 
	C196.340469,218.756683 197.569092,226.924988 197.572327,235.643646 
	C195.974304,239.691254 194.376282,243.738876 192.285629,248.239670 
	C175.713287,267.512878 174.645691,297.449219 190.110626,316.808258 
	C198.003693,324.613892 202.680084,333.910736 203.158859,346.013458 
	C201.981781,368.742676 215.479706,390.433105 235.506241,397.538666 
z"/>
<path fill="#B76840" opacity="1.000000" stroke="none" 
	d="
M339.966858,107.668053 
	C331.949097,110.645958 328.944733,103.695786 324.297974,100.093323 
	C323.176483,99.223892 322.498840,97.781990 321.421448,96.358948 
	C324.074158,94.237724 327.713989,92.945663 329.616791,90.370232 
	C334.565857,83.671623 338.799927,76.439240 343.218933,69.357246 
	C344.939484,66.599869 346.583069,63.761604 347.921204,60.806011 
	C350.056152,56.090508 352.608185,55.044197 358.286865,56.995060 
	C362.489990,58.439007 365.291016,62.731876 363.602417,66.505814 
	C360.160156,74.199173 356.439270,81.806305 352.252686,89.116524 
	C348.633026,95.436844 344.210388,101.297295 339.966858,107.668053 
z"/>
<path fill="#C78056" opacity="1.000000" stroke="none" 
	d="
M192.778259,247.786499 
	C194.376282,243.738876 195.974304,239.691254 198.029022,235.122604 
	C199.970581,230.345627 202.124878,226.196823 202.826019,221.815445 
	C206.098221,201.367599 214.183456,184.413986 234.398911,175.622864 
	C235.914963,174.963577 237.360474,174.110764 238.762787,173.227295 
	C242.656586,170.774200 244.839279,167.588120 242.956421,162.792328 
	C246.454330,159.654678 249.952240,156.517014 253.740906,153.543884 
	C255.366394,155.358765 256.818665,158.437546 258.009491,158.339554 
	C260.019165,158.174149 262.120819,156.238998 263.686493,154.579041 
	C264.735413,153.466919 264.840057,151.506348 265.514923,149.991241 
	C267.466858,145.609146 269.295532,141.155945 271.529297,136.918716 
	C277.363739,125.851295 286.576263,118.505440 297.965271,113.739189 
	C301.903412,112.091095 303.582428,109.309380 302.938629,105.105400 
	C317.322052,104.986336 328.486877,110.640892 335.853607,124.147552 
	C337.185303,144.494308 330.252625,160.785782 314.694855,172.494858 
	C307.645905,177.800003 299.013885,181.120438 290.846954,184.775818 
	C286.107788,186.896973 282.665588,189.397552 281.421387,194.752975 
	C280.256165,199.768311 278.623505,204.710236 276.783691,209.526749 
	C272.100494,221.786987 265.703552,233.086533 255.926544,242.014008 
	C250.259262,247.188843 248.838959,252.722153 251.399094,259.905090 
	C256.510010,274.244812 255.985565,288.696289 251.348618,303.084137 
	C248.659332,311.428680 249.827988,314.252197 257.912964,318.131653 
	C266.130890,322.074860 273.027191,327.706421 276.908173,335.893829 
	C280.073547,342.571655 282.185577,349.837677 284.018555,357.032959 
	C285.834045,364.159698 288.152893,366.697784 295.538300,366.930695 
	C299.032654,367.040924 302.534607,366.908844 306.033112,366.886566 
	C316.320953,368.711670 325.841522,371.910614 332.083313,382.058563 
	C333.441223,390.290344 333.767334,397.733917 330.519745,404.872467 
	C322.088623,423.404968 300.149384,432.658997 281.001740,425.790985 
	C278.338379,424.835663 275.660980,423.919464 272.990082,422.985168 
	C270.326965,420.055359 267.153687,417.440613 265.108856,414.129028 
	C261.072357,407.592010 255.391586,403.935669 248.143143,401.999603 
	C243.840607,400.850372 239.712677,399.047577 235.446594,397.045410 
	C238.664474,392.070770 238.622742,390.149445 234.116699,387.185913 
	C221.609146,378.960083 215.252213,367.081604 212.795792,352.694916 
	C211.587906,345.620667 210.634979,344.928528 203.235138,345.118256 
	C202.680084,333.910736 198.003693,324.613892 190.292664,316.289215 
	C196.314194,311.706818 193.463638,306.503174 191.998642,301.790070 
	C187.932938,288.710022 187.952057,275.959015 194.084595,263.493530 
	C195.184219,261.258362 196.498840,259.124969 197.527527,256.859833 
	C200.017319,251.377472 198.832687,249.186386 192.778259,247.786499 
z"/>
<path fill="#B46C43" opacity="1.000000" stroke="none" 
	d="
M305.888306,366.591064 
	C302.534607,366.908844 299.032654,367.040924 295.538300,366.930695 
	C288.152893,366.697784 285.834045,364.159698 284.018555,357.032959 
	C282.185577,349.837677 280.073547,342.571655 276.908173,335.893829 
	C273.027191,327.706421 266.130890,322.074860 257.912964,318.131653 
	C249.827988,314.252197 248.659332,311.428680 251.348618,303.084137 
	C255.985565,288.696289 256.510010,274.244812 251.399094,259.905090 
	C248.838959,252.722153 250.259262,247.188843 255.926544,242.014008 
	C265.703552,233.086533 272.100494,221.786987 276.783691,209.526749 
	C278.623505,204.710236 280.256165,199.768311 281.421387,194.752975 
	C282.665588,189.397552 286.107788,186.896973 290.846954,184.775818 
	C299.013885,181.120438 307.645905,177.800003 314.694855,172.494858 
	C330.252625,160.785782 337.185303,144.494308 336.009277,124.455208 
	C337.376495,125.794083 339.247345,127.407097 340.013489,129.437042 
	C346.715973,147.195724 342.071381,162.629822 330.035400,176.482895 
	C323.373840,184.150162 315.251648,189.710342 306.149658,194.140396 
	C296.680420,198.749176 289.655151,205.326843 287.338257,216.504028 
	C285.047821,227.553452 279.909637,237.246414 270.890045,244.849030 
	C263.560455,251.027161 261.881348,259.776917 263.379730,269.021210 
	C265.231445,280.445770 265.881409,291.808716 263.347992,303.237122 
	C261.390961,312.065247 265.744507,318.555511 272.276642,323.498199 
	C280.908234,330.029510 286.689514,338.124939 290.758392,348.236023 
	C293.038025,353.900879 298.486969,358.301239 302.566742,363.222534 
	C303.501373,364.349945 304.678162,365.276550 305.888306,366.591064 
z"/>
<path fill="#B46C43" opacity="1.000000" stroke="none" 
	d="
M273.123627,423.295959 
	C275.660980,423.919464 278.338379,424.835663 281.001740,425.790985 
	C300.149384,432.658997 322.088623,423.404968 330.519745,404.872467 
	C333.767334,397.733917 333.441223,390.290344 332.212891,382.377960 
	C338.063538,384.804474 340.102356,390.614929 341.424683,396.085754 
	C347.125092,419.669647 325.101807,437.094147 309.311005,437.169708 
	C297.160614,437.227814 286.301331,434.548248 276.706207,427.100891 
	C275.424622,426.106140 274.400513,424.779602 273.123627,423.295959 
z"/>
<path fill="#D48F66" opacity="1.000000" stroke="none" 
	d="
M242.593201,162.907944 
	C244.839279,167.588120 242.656586,170.774200 238.762787,173.227295 
	C237.360474,174.110764 235.914963,174.963577 234.398911,175.622864 
	C214.183456,184.413986 206.098221,201.367599 202.826019,221.815445 
	C202.124878,226.196823 199.970581,230.345627 198.195221,234.806854 
	C197.569092,226.924988 196.340469,218.756683 197.066589,210.765991 
	C199.176041,187.551559 212.860687,173.295059 234.159805,165.569611 
	C236.809143,164.608658 239.537979,163.866898 242.593201,162.907944 
z"/>
<path fill="#D58F66" opacity="1.000000" stroke="none" 
	d="
M302.517670,105.081757 
	C303.582428,109.309380 301.903412,112.091095 297.965271,113.739189 
	C286.576263,118.505440 277.363739,125.851295 271.529297,136.918716 
	C269.295532,141.155945 267.466858,145.609146 265.514923,149.991241 
	C264.840057,151.506348 264.735413,153.466919 263.686493,154.579041 
	C262.120819,156.238998 260.019165,158.174149 258.009491,158.339554 
	C256.818665,158.437546 255.366394,155.358765 253.992889,153.326233 
	C258.756226,140.871170 263.197723,128.587219 272.756348,119.174782 
	C280.918610,111.137360 290.150909,105.261635 302.517670,105.081757 
z"/>
<path fill="#D48E66" opacity="1.000000" stroke="none" 
	d="
M192.531937,248.013077 
	C198.832687,249.186386 200.017319,251.377472 197.527527,256.859833 
	C196.498840,259.124969 195.184219,261.258362 194.084595,263.493530 
	C187.952057,275.959015 187.932938,288.710022 191.998642,301.790070 
	C193.463638,306.503174 196.314194,311.706818 190.168640,315.977173 
	C174.645691,297.449219 175.713287,267.512878 192.531937,248.013077 
z"/>
<path fill="#D48F66" opacity="1.000000" stroke="none" 
	d="
M203.196991,345.565857 
	C210.634979,344.928528 211.587906,345.620667 212.795792,352.694916 
	C215.252213,367.081604 221.609146,378.960083 234.116699,387.185913 
	C238.622742,390.149445 238.664474,392.070770 235.172333,396.832306 
	C215.479706,390.433105 201.981781,368.742676 203.196991,345.565857 
z"/>
</svg>