<svg width="30" height="30" viewBox="0 0 30 30" fill="none" xmlns="http://www.w3.org/2000/svg">
<path fill-rule="evenodd" clip-rule="evenodd" d="M0.643102 2.35183H11.1369V0.917976C11.1369 0.413089 11.5997 0 12.1671 0H17.9608C18.528 0 18.9911 0.412845 18.9911 0.917976V2.35207H29.3569C29.7112 2.35207 30 2.61013 30 2.92556V5.73662H0V2.92532C0 2.60988 0.289081 2.35183 0.643102 2.35183ZM2.38115 7.22784H27.8424C28.3732 7.22784 28.8552 7.61823 28.8072 8.0882L26.6524 29.1404C26.6047 29.6106 26.2167 30 25.6871 30H4.5061C3.97616 30 3.58761 29.6113 3.54049 29.1404L1.41554 8.0882C1.36841 7.61652 1.84984 7.22784 2.38115 7.22784ZM18.9278 10.4976H21.6312V26.4436H18.9278V10.4976ZM8.24003 10.4976H10.9437V26.4436H8.24003V10.4976ZM13.5832 10.4976H16.2874V26.4436H13.5832V10.4976Z" fill="black"/>
</svg>
