<svg width="15" height="15" viewBox="0 0 15 15" fill="none" xmlns="http://www.w3.org/2000/svg">
<path d="M15 7.49988H14.998C14.998 5.42761 14.1589 3.55273 12.8031 2.19678C11.4473 0.84082 9.57227 0.00195312 7.50024 0.00195312V0L7.5 0V0.00195312C5.42749 0.00195312 3.55273 0.841064 2.19678 2.1969C0.841064 3.55273 0.00195312 5.42773 0.00195312 7.49976H0V7.5H0.00195312C0.00195312 9.57239 0.841064 11.4473 2.19678 12.8031C3.55273 14.1589 5.42761 14.998 7.49963 14.998V15H7.5V14.998C9.57227 14.998 11.4471 14.1589 12.803 12.8031C14.1588 11.4473 14.998 9.57227 14.998 7.50024H15V7.49988ZM9.81458 6.24768C10.0543 6.01465 10.4371 6.02014 10.6703 6.25964C10.9033 6.49902 10.8981 6.8822 10.6583 7.11523L7.90942 9.78101L7.48755 9.34717L7.90967 9.78284C7.66907 10.016 7.28516 10.0101 7.05188 9.76965C7.04492 9.7627 7.03857 9.75562 7.03223 9.74829L4.33972 7.11523C4.1001 6.8822 4.09473 6.49902 4.32788 6.25964C4.56067 6.02014 4.94373 6.01465 5.18347 6.24768L7.48926 8.50269L9.81458 6.24768Z" fill="#201335bb"/>
</svg>
