<?xml version="1.0" encoding="UTF-8"?>
<svg version="1.1" xmlns="http://www.w3.org/2000/svg" width="500" height="500">
<path d="M0 0 C11.07371307 -0.6416544 22.35579141 3.43165833 30.90234375 10.25390625 C31.76859375 10.83140625 32.63484375 11.40890625 33.52734375 12.00390625 C41.76890441 19.81170056 47.45241555 30.81165119 48.140625 42.1953125 C48.48435728 56.47878218 45.90508481 67.59885429 35.9375 78.37890625 C27.52692914 86.40925238 17.83960467 90.48837798 6.59741211 92.78613281 C1.6592702 93.84123271 -1.82379163 95.69489663 -6.09765625 98.25390625 C-6.75765625 98.25390625 -7.41765625 98.25390625 -8.09765625 98.25390625 C-10.42825378 104.08040009 -11.46741558 109.49415273 -12.09765625 115.69140625 C-13.59212979 129.91589487 -17.63223205 140.79493415 -28.1484375 150.88671875 C-38.28566871 159.02335731 -50.13287099 163.10422183 -63.09765625 162.25390625 C-67.99929542 161.37985552 -72.80412848 160.11404618 -77.61914062 158.85546875 C-84.57061011 157.1815363 -90.65228725 156.62794274 -97.02319336 160.39135742 C-101.14517406 163.350208 -103.41584929 167.24958819 -105.97265625 171.56640625 C-112.99205674 183.37298409 -121.97990546 190.96151197 -135.41015625 194.62890625 C-141.90903551 195.78269278 -148.53124951 195.54559581 -155.09765625 195.25390625 C-156.18046875 195.20878906 -157.26328125 195.16367187 -158.37890625 195.1171875 C-166.91236172 194.27043999 -171.34524527 190.3606324 -177.09765625 184.25390625 C-180.47906125 180.69519912 -183.56428927 179.0048434 -188.09765625 177.25390625 C-188.86464844 176.91101563 -189.63164062 176.568125 -190.421875 176.21484375 C-204.01132408 170.28412657 -216.91963953 172.9188927 -230.97265625 175.87890625 C-236.49577854 177.00876616 -241.48128717 177.79488751 -247.09765625 177.25390625 C-248.49564453 177.13208984 -248.49564453 177.13208984 -249.921875 177.0078125 C-261.36437307 175.58665717 -271.71966495 170.12776269 -278.8671875 160.9921875 C-282.47393701 155.73529116 -284.95279213 150.40150272 -287.09765625 144.44140625 C-294.00421943 125.25170915 -303.23294726 112.24951415 -322.09765625 103.25390625 C-325.20872474 101.84640572 -328.33911163 100.48549003 -331.47265625 99.12890625 C-346.0192444 92.80804935 -353.20793816 84.8380331 -359.15234375 69.91796875 C-363.14530323 58.66508295 -361.96340413 46.0437709 -357.09765625 35.25390625 C-350.16603526 23.0996123 -340.29719624 15.60396681 -327.09765625 11.25390625 C-315.62516601 8.4354677 -303.98997348 10.14357771 -293.5625 15.57421875 C-282.32441696 22.62934464 -273.63490311 33.04504671 -270.4942627 46.0975647 C-269.87764638 49.45009567 -269.96826769 52.67882583 -270.078125 56.078125 C-270.10825693 57.53318607 -270.13752877 58.98826517 -270.16601562 60.44335938 C-270.22192842 62.70179303 -270.28578394 64.95929831 -270.36499023 67.21704102 C-270.43767937 69.42083262 -270.47874242 71.62348313 -270.515625 73.828125 C-270.57399536 75.78625122 -270.57399536 75.78625122 -270.63354492 77.78393555 C-270.34820215 81.37724659 -270.34820215 81.37724659 -267.97216797 84.1940918 C-264.51698149 86.67000554 -262.89282883 86.80789242 -258.6875 86.63671875 C-257.44935547 86.60707031 -256.21121094 86.57742188 -254.93554688 86.546875 C-253.64841797 86.49144531 -252.36128906 86.43601562 -251.03515625 86.37890625 C-234.73101224 85.7617673 -222.17630319 87.87179831 -209.66015625 98.87890625 C-204.44340925 104.24417274 -201.23051006 110.87556536 -197.90258789 117.51025391 C-197.46551514 118.36409668 -197.02844238 119.21793945 -196.578125 120.09765625 C-196.19551514 120.87302734 -195.81290527 121.64839844 -195.41870117 122.44726562 C-194.22751831 124.41033624 -194.22751831 124.41033624 -192.05883789 125.07421875 C-189.33692019 125.32360645 -188.44800268 124.45501328 -186.34765625 122.75390625 C-185.64640625 122.19703125 -184.94515625 121.64015625 -184.22265625 121.06640625 C-182.86420347 119.90772594 -181.52793983 118.72217092 -180.22265625 117.50390625 C-169.66191944 107.64721856 -158.8982372 104.76141463 -144.85546875 104.96875 C-136.24957518 105.31195097 -128.51503879 108.17640431 -120.66015625 111.56640625 C-116.43403268 113.31514704 -113.56553417 113.77298474 -109.09765625 112.25390625 C-105.49464315 108.42030031 -103.43715128 104.13993449 -101.22265625 99.44140625 C-94.65208045 86.02913131 -86.87311584 77.88290323 -72.65234375 72.25 C-65.98817875 70.38256915 -59.14230356 69.96231315 -52.26318359 69.44335938 C-49.1847022 69.17403564 -46.15099107 68.72678588 -43.09765625 68.25390625 C-43.11860352 67.47901855 -43.13955078 66.70413086 -43.16113281 65.90576172 C-44.04112785 28.43913765 -44.04112785 28.43913765 -30.03125 12.97265625 C-21.51127212 4.80323202 -11.51350354 1.39362706 0 0 Z " fill="#331515" transform="translate(418.09765625,214.74609375)"/>
<path d="M0 0 C3.40965122 1.13655041 3.90044655 1.85851694 5.93359375 4.69140625 C6.77434448 5.84950806 6.77434448 5.84950806 7.63208008 7.03100586 C8.22786865 7.86639893 8.82365723 8.70179199 9.4375 9.5625 C10.69988292 11.30514978 11.96291454 13.04732982 13.2265625 14.7890625 C13.85981445 15.66594727 14.49306641 16.54283203 15.14550781 17.44628906 C17.82801195 21.14020603 20.56536266 24.79152764 23.3125 28.4375 C24.28256163 29.72785741 25.25261393 31.01822183 26.22265625 32.30859375 C26.91512451 33.22874268 26.91512451 33.22874268 27.62158203 34.16748047 C29.83433411 37.10919445 32.04202223 40.05470193 34.25 43 C34.97703125 43.969375 35.7040625 44.93875 36.453125 45.9375 C36.96359375 46.618125 37.4740625 47.29875 38 48 C39.5625 47.6875 41.125 47.375 42.6875 47.0625 C44.45833333 46.70833333 46.22916667 46.35416667 48 46 C48.7528125 45.81953125 49.505625 45.6390625 50.28125 45.453125 C71.09388612 41.98435231 91.51406058 47.9774011 108.5625 60 C122.89207411 71.7327299 130.92578411 87.67534003 134.75 105.4375 C134.97042969 106.41654297 135.19085938 107.39558594 135.41796875 108.40429688 C137 115.55291634 137 115.55291634 137 119 C137.55042969 119.06316406 138.10085937 119.12632812 138.66796875 119.19140625 C145.55040967 120.2050991 152.03341605 122.14926568 158.625 124.3125 C159.50696045 124.59617432 160.3889209 124.87984863 161.29760742 125.17211914 C172.33434224 128.878493 183.00595124 134.61162116 190.1875 144 C191.54621434 145.72379028 191.54621434 145.72379028 193 147 C197.74696364 147.33118351 202.52524859 144.76511154 206.92578125 143.03515625 C214.1332139 140.60825707 220.06614118 139.88603157 227.5859375 140.19140625 C228.37314682 140.21882401 229.16035614 140.24624176 229.97142029 140.27449036 C233.26903112 140.39209906 236.56317499 140.51098218 239.85644531 140.7199707 C250.26168703 141.60202559 250.26168703 141.60202559 259.51538086 137.63867188 C262.34594547 135.01623455 264.70621983 132.10250421 267 129 C275.09744939 118.56186237 285.99976069 113.24897994 297.9921875 108.3125 C303.58539246 105.87182874 306.63523025 103.34844541 309.0625 97.625 C310.16788601 94.57267895 311.16032981 91.49602815 312.14453125 88.40234375 C318.72330085 67.7682077 329.72072641 52.83665967 349.13696289 42.73583984 C366.58048446 34.13847475 386.89289515 33.26112375 405.48828125 38.74609375 C415.75461355 42.41182531 423.34857631 47.23512851 431 55 C432.15822266 56.16015625 432.15822266 56.16015625 433.33984375 57.34375 C446.84331881 71.56279383 454.65976428 88.91290629 454.25 108.6328125 C453.0992121 124.13248707 449.59858745 138.17161865 439 150 C438.45085937 150.63035156 437.90171875 151.26070312 437.3359375 151.91015625 C426.2705109 163.779898 411.53339337 173.032233 397.19921875 180.44921875 C394.50220215 182.35102264 393.98345899 183.62940898 393 186.75 C392.51273437 188.21566406 392.51273437 188.21566406 392.015625 189.7109375 C391.30735545 192.0046412 390.61029975 194.30182473 389.921875 196.6015625 C384.35188897 214.53691751 373.54432093 230.47680292 357 240 C345.86212603 245.84098276 334.64693318 249.25393187 322 248.9921875 C320.700625 248.97542969 319.40125 248.95867187 318.0625 248.94140625 C316.02840937 248.91048257 313.99474015 248.87488034 311.9609375 248.82861328 C299.84472446 248.34236442 299.84472446 248.34236442 289.6875 254.125 C288.800625 255.07375 287.91375 256.0225 287 257 C281.52528933 262.38933507 275.75012838 267.05049383 269.375 271.3125 C268.7660791 271.72072998 268.1571582 272.12895996 267.52978516 272.54956055 C251.97357027 282.71643441 235.17158837 284.25093325 216.98828125 280.97216797 C202.76356731 277.97144843 190.92506569 271.517413 180 262 C176.72630887 259.18184608 174.87406608 257.93910579 170.35546875 258.25390625 C165.91063377 258.91170531 161.7131446 260.14572343 157.4375 261.5 C140.73178909 266.76282522 122.99207048 265.94121326 106.9609375 258.5625 C87.61108821 248.35149774 73.70639649 234.17061605 67 213 C66.60222924 211.52143515 66.21232845 210.04074196 65.828125 208.55859375 C65.61824951 207.7584082 65.40837402 206.95822266 65.19213867 206.13378906 C64.78124168 204.53736106 64.3873395 202.93643418 64.01293945 201.33105469 C62.73269419 196.2756992 61.38764131 193.16210777 57 190 C53.73223633 188.74788005 50.39963434 187.93835581 47 187.125 C25.31255036 181.41100837 11.36329141 169.45643972 -0.4375 150.75 C-2.97402159 146.31287349 -4.73398801 141.94666937 -6 137 C-6.20496094 136.23945313 -6.40992187 135.47890625 -6.62109375 134.6953125 C-11.13464487 114.71117583 -7.81299804 95.49434414 2.390625 78.01171875 C4.23565028 75.12813916 4.23565028 75.12813916 4 72 C2.73742627 69.9364545 2.73742627 69.9364545 0.9921875 67.78125 C0.34161377 66.94029785 -0.30895996 66.0993457 -0.97924805 65.23291016 C-1.68734619 64.3310498 -2.39544434 63.42918945 -3.125 62.5 C-4.59374338 60.60256457 -6.06116386 58.70410448 -7.52734375 56.8046875 C-8.2735498 55.84014648 -9.01975586 54.87560547 -9.78857422 53.88183594 C-13.14668832 49.5056846 -16.42345238 45.0715452 -19.6875 40.625 C-20.53175537 39.47741211 -20.53175537 39.47741211 -21.39306641 38.30664062 C-24.6308135 33.89588169 -27.82920296 29.45911717 -31 25 C-27.45447355 19.8472981 -22.76642293 16.6528366 -17.75 13.0625 C-16.09874368 11.86618164 -14.44769997 10.66956976 -12.796875 9.47265625 C-11.99443359 8.89789551 -11.19199219 8.32313477 -10.36523438 7.73095703 C-8.79204847 6.57964736 -7.24059587 5.39802145 -5.71289062 4.18701172 C-4.65618164 3.35000732 -4.65618164 3.35000732 -3.578125 2.49609375 C-2.9584082 1.99134521 -2.33869141 1.48659668 -1.70019531 0.96655273 C-1.13913086 0.64759033 -0.57806641 0.32862793 0 0 Z M-6.5625 23 C-7.20316406 23.556875 -7.84382813 24.11375 -8.50390625 24.6875 C-8.99761719 25.120625 -9.49132812 25.55375 -10 26 C-7.89495224 31.38419806 -5.27326362 35.85538636 -1.9375 40.5625 C-1.46014404 41.24634766 -0.98278809 41.93019531 -0.4909668 42.63476562 C0.99804034 44.76226883 2.49714888 46.88225749 4 49 C4.49145508 49.69335449 4.98291016 50.38670898 5.48925781 51.10107422 C8.31196838 55.07766949 11.14978167 59.04308085 14 63 C15.46573934 62.09522263 16.92235756 61.17565859 18.375 60.25 C19.18710937 59.73953125 19.99921875 59.2290625 20.8359375 58.703125 C23.12110811 56.90468748 23.8154356 55.5938683 25 53 C20.34215851 46.99311251 15.67617549 40.99262772 11 35 C10.54866699 34.42137207 10.09733398 33.84274414 9.63232422 33.24658203 C5.9828428 28.58055748 2.39166969 23.99242699 -2 20 C-3.87824891 20 -5.21518837 21.82416439 -6.5625 23 Z M340 67 C338.99839844 67.84498047 338.99839844 67.84498047 337.9765625 68.70703125 C330.30057879 75.59530484 327.1357091 85.0116016 324.4375 94.6875 C321.19525682 106.21716508 317.74377364 112.90366025 307 119 C304.37251256 120.35060365 301.71949239 121.64610567 299.0625 122.9375 C288.31889692 128.17066634 279.82774377 134.71488712 271.67700195 143.43237305 C266.25020677 149.13512158 260.65191418 152.78324174 252.61523438 153.15771484 C251.2747936 153.1791523 249.93428613 153.19665762 248.59375 153.2109375 C247.11196879 153.23904139 245.63019813 153.26770601 244.1484375 153.296875 C241.83627021 153.33779831 239.52429219 153.37472006 237.21191406 153.40136719 C220.34136539 153.61215819 206.68147282 156.59018373 193 167 C189.55988508 165.57470293 187.96220591 163.94708828 185.8125 160.9375 C174.27810197 145.75297601 161.5448545 139.1686241 143.43920898 134.43310547 C130.19166468 130.93106713 130.19166468 130.93106713 125.7421875 124.98046875 C123.27558801 120.05644416 122.30641879 114.65436938 121.125 109.3125 C116.98872856 91.90040571 110.08317618 78.11604745 94.828125 67.71875 C81.1372417 59.39832368 67.0469058 57.11450739 51.28125 59.58203125 C35.84276514 63.38949542 21.98478692 73.63339952 13.61669922 87.13061523 C5.65382636 100.77888342 3.88854364 115.30945068 6.69140625 130.828125 C11.09924956 146.39389802 21.25779259 158.66878675 35 167 C36.0828125 167.65742188 36.0828125 167.65742188 37.1875 168.328125 C43.49393218 171.78790376 50.25515978 173.78241929 57.13647461 175.76977539 C62.80774807 177.44801532 68.60597468 179.18806503 72.56640625 183.83984375 C75.40991785 189.82794464 77.14658693 195.93595066 78.875 202.3125 C83.65828624 219.76981591 92.24460549 234.25040235 108.24609375 243.60546875 C112.71253195 245.86719703 117.19812988 247.59388869 122 249 C123.18142578 249.35578125 123.18142578 249.35578125 124.38671875 249.71875 C134.9729309 252.37842644 145.3194709 250.74455085 155.5 247.4375 C164.48831386 244.54518023 174.48822266 242.58417219 183.5 246.5625 C186.11631626 248.14898965 188.04963757 250.01617393 190.125 252.25 C199.97950917 262.64080899 214.91582903 267.92251759 228.93945312 268.46826172 C241.83288688 268.6362796 255.30486128 267.24420204 265 258 C265.78503906 257.30519531 266.57007813 256.61039063 267.37890625 255.89453125 C270.72418051 252.92719637 274.02446609 249.91550105 277.28515625 246.85546875 C278.01605469 246.18128906 278.74695313 245.50710938 279.5 244.8125 C280.1290625 244.22082031 280.758125 243.62914062 281.40625 243.01953125 C282.2621875 242.35308594 283.118125 241.68664062 284 241 C284.93138794 240.22366211 284.93138794 240.22366211 285.8815918 239.43164062 C293.9534655 233.56369442 302.33553891 234.44735153 311.8125 234.875 C330.49869249 235.63942642 345.91703415 232.61128549 360.3125 219.75 C369.38065805 211.29232305 373.69240336 201.17427058 377.4375 189.578125 C377.6953125 188.78470703 377.953125 187.99128906 378.21875 187.17382812 C378.72850776 185.59230467 379.22896106 184.00774309 379.71875 182.41992188 C382.00930884 175.25570115 384.89734494 170.12655744 391.47265625 166.26953125 C394.52438421 164.73659216 397.64878543 163.47308391 400.8125 162.1875 C415.17463464 156.16368045 428.28337408 145.27546199 435 131 C441.07970665 115.55637219 441.98847629 100.47896093 435.74609375 84.86328125 C428.97192402 70.44740506 417.85272987 58.20797694 403 52 C379.08663297 44.38336266 358.26791586 50.42796558 340 67 Z " fill="#8E6359" transform="translate(39,154)"/>
<path d="M0 0 C11.07371307 -0.6416544 22.35579141 3.43165833 30.90234375 10.25390625 C31.76859375 10.83140625 32.63484375 11.40890625 33.52734375 12.00390625 C41.76890441 19.81170056 47.45241555 30.81165119 48.140625 42.1953125 C48.48435728 56.47878218 45.90508481 67.59885429 35.9375 78.37890625 C27.52692914 86.40925238 17.83960467 90.48837798 6.59741211 92.78613281 C1.6592702 93.84123271 -1.82379163 95.69489663 -6.09765625 98.25390625 C-6.75765625 98.25390625 -7.41765625 98.25390625 -8.09765625 98.25390625 C-10.42825378 104.08040009 -11.46741558 109.49415273 -12.09765625 115.69140625 C-13.59212979 129.91589487 -17.63223205 140.79493415 -28.1484375 150.88671875 C-38.28566871 159.02335731 -50.13287099 163.10422183 -63.09765625 162.25390625 C-67.99929542 161.37985552 -72.80412848 160.11404618 -77.61914062 158.85546875 C-84.57061011 157.1815363 -90.65228725 156.62794274 -97.02319336 160.39135742 C-101.14517406 163.350208 -103.41584929 167.24958819 -105.97265625 171.56640625 C-112.99205674 183.37298409 -121.97990546 190.96151197 -135.41015625 194.62890625 C-145.52922676 196.4254079 -157.19967064 196.10706224 -167.09765625 193.25390625 C-167.42765625 192.59390625 -167.75765625 191.93390625 -168.09765625 191.25390625 C-167.10765625 191.25390625 -166.11765625 191.25390625 -165.09765625 191.25390625 C-164.72640625 189.89265625 -164.72640625 189.89265625 -164.34765625 188.50390625 C-162.97727228 184.94090792 -162.14824212 183.51487102 -159.09765625 181.25390625 C-156.26065936 181.03862478 -153.78381939 181.02071643 -150.97265625 181.19140625 C-141.62403474 181.47322437 -133.5263032 180.500723 -126.09765625 174.25390625 C-123.04773987 170.76335039 -120.53237074 166.90597798 -117.96484375 163.0546875 C-111.09271336 152.79212945 -105.42214028 146.39076717 -93.09765625 143.56640625 C-86.02938351 142.83012784 -80.22514866 143.50419105 -73.41015625 145.25390625 C-62.02683604 147.94280576 -51.70440586 149.13583103 -41.09765625 143.25390625 C-34.45483038 139.14237746 -30.70104215 132.43240785 -28.09765625 125.25390625 C-27.79928031 123.5408168 -27.56440182 121.81571564 -27.38671875 120.0859375 C-27.27585937 119.10947266 -27.165 118.13300781 -27.05078125 117.12695312 C-26.83418935 115.106718 -26.62313639 113.0858804 -26.41796875 111.06445312 C-25.29192493 101.30753933 -22.79502039 91.88956499 -15.09765625 85.25390625 C-9.82977309 81.83139153 -3.90193144 79.75011606 2.328125 78.9375 C11.73327167 77.64446247 21.06884065 73.90313428 27.52734375 66.69140625 C33.83363987 58.22619795 34.80836447 49.58743989 33.90234375 39.25390625 C32.94024982 35.99612283 31.58107279 33.196328 29.90234375 30.25390625 C29.48984375 29.36703125 29.07734375 28.48015625 28.65234375 27.56640625 C24.19813448 21.68048686 17.01993914 17.13142396 9.90234375 15.25390625 C-1.25427394 14.11390743 -9.44034533 15.56095094 -18.20703125 22.515625 C-23.86788108 27.72033197 -27.82803893 33.53541973 -28.27709961 41.39428711 C-28.24753174 42.49135986 -28.21796387 43.58843262 -28.1875 44.71875 C-28.16751953 45.93111328 -28.14753906 47.14347656 -28.12695312 48.39257812 C-28.06584719 50.92132374 -28.0007549 53.44997622 -27.93164062 55.97851562 C-27.83023965 62.56258573 -27.81003975 67.47857994 -31.09765625 73.25390625 C-31.96390625 74.83171875 -31.96390625 74.83171875 -32.84765625 76.44140625 C-36.33830156 80.80471288 -40.58062268 83.15169399 -46.09765625 84.25390625 C-48.17852558 84.34588967 -50.25969863 84.43483972 -52.34179688 84.49267578 C-60.28440413 84.73864249 -67.05238143 85.2632261 -74.09765625 89.25390625 C-75.38929688 89.91132813 -75.38929688 89.91132813 -76.70703125 90.58203125 C-84.78700915 95.31527274 -86.9291412 101.76922006 -90.09765625 110.25390625 C-93.66892694 118.22779262 -98.88110636 124.74089422 -107.09765625 128.25390625 C-115.47869325 129.48997689 -121.93188499 127.14069003 -129.47265625 123.75390625 C-139.59429133 119.52017368 -147.89971631 116.65386065 -158.66015625 120.69140625 C-163.50941287 123.19138864 -167.73030272 126.61172237 -172.04296875 129.92578125 C-184.77752243 139.63140017 -184.77752243 139.63140017 -190.22265625 139.87890625 C-197.28007236 138.74061333 -203.02495479 137.59737955 -207.58203125 131.73828125 C-209.22362347 129.0474239 -210.55891124 126.29680442 -211.90307617 123.44897461 C-216.47712046 113.76308931 -220.9508485 106.83540175 -231.50390625 103.05078125 C-238.52526817 100.8090082 -245.04847758 100.93996308 -252.34765625 101.25390625 C-262.58272272 101.68851629 -268.30576639 101.20292207 -276.84765625 95.37890625 C-279.4694568 92.90276129 -281.23549711 90.33610069 -283.09765625 87.25390625 C-283.46117187 86.69703125 -283.8246875 86.14015625 -284.19921875 85.56640625 C-285.51757525 82.17307127 -285.34683385 78.83769959 -285.28515625 75.25390625 C-285.28418945 74.1865625 -285.28418945 74.1865625 -285.28320312 73.09765625 C-285.25419553 69.64252905 -284.97821313 66.57970186 -284.09765625 63.25390625 C-283.25355055 52.1421542 -284.33717223 44.56410867 -291.47265625 35.94140625 C-298.73326914 28.18854842 -306.54995703 25.16375117 -317.03515625 24.75390625 C-325.66514529 24.96779606 -331.67084193 27.7575457 -337.97265625 33.56640625 C-345.45043561 41.64381887 -346.64675909 50.56488874 -346.44921875 61.1875 C-346.1498135 66.62082467 -344.20334755 70.83238258 -341.09765625 75.25390625 C-340.25074219 76.50300781 -340.25074219 76.50300781 -339.38671875 77.77734375 C-336.5559944 80.8399363 -333.43931075 82.44886401 -329.72265625 84.19140625 C-329.01802246 84.53494141 -328.31338867 84.87847656 -327.58740234 85.23242188 C-323.03177457 87.42696963 -318.41245305 89.36667442 -313.72265625 91.25390625 C-307.21264542 93.99535235 -302.27175897 97.48320815 -297.09765625 102.25390625 C-295.92589844 103.30578125 -295.92589844 103.30578125 -294.73046875 104.37890625 C-283.78817799 114.6948706 -278.04808271 127.78411767 -272.59765625 141.56640625 C-269.17520376 149.85464584 -264.0890726 157.24234777 -255.8828125 161.3671875 C-246.8584148 164.24031271 -236.49854049 162.36392964 -227.5625 160.06640625 C-210.82868819 156.14235568 -196.02399515 156.55226227 -180.55078125 164.65625 C-177.17149523 166.85709074 -174.44354855 168.71660714 -173.53515625 172.75390625 C-174.09765625 175.25390625 -174.09765625 175.25390625 -176.22265625 177.56640625 C-179.73272932 179.62666653 -181.08336256 179.94868785 -185.09765625 179.25390625 C-186.45065494 178.4963388 -187.78216095 177.69987276 -189.09765625 176.87890625 C-202.08155638 169.25792139 -217.12212984 172.9870381 -230.97265625 175.87890625 C-236.49577854 177.00876616 -241.48128717 177.79488751 -247.09765625 177.25390625 C-248.49564453 177.13208984 -248.49564453 177.13208984 -249.921875 177.0078125 C-261.36437307 175.58665717 -271.71966495 170.12776269 -278.8671875 160.9921875 C-282.47393701 155.73529116 -284.95279213 150.40150272 -287.09765625 144.44140625 C-294.00421943 125.25170915 -303.23294726 112.24951415 -322.09765625 103.25390625 C-325.20872474 101.84640572 -328.33911163 100.48549003 -331.47265625 99.12890625 C-346.0192444 92.80804935 -353.20793816 84.8380331 -359.15234375 69.91796875 C-363.14530323 58.66508295 -361.96340413 46.0437709 -357.09765625 35.25390625 C-350.16603526 23.0996123 -340.29719624 15.60396681 -327.09765625 11.25390625 C-315.62516601 8.4354677 -303.98997348 10.14357771 -293.5625 15.57421875 C-282.32441696 22.62934464 -273.63490311 33.04504671 -270.4942627 46.0975647 C-269.87764638 49.45009567 -269.96826769 52.67882583 -270.078125 56.078125 C-270.10825693 57.53318607 -270.13752877 58.98826517 -270.16601562 60.44335938 C-270.22192842 62.70179303 -270.28578394 64.95929831 -270.36499023 67.21704102 C-270.43767937 69.42083262 -270.47874242 71.62348313 -270.515625 73.828125 C-270.57399536 75.78625122 -270.57399536 75.78625122 -270.63354492 77.78393555 C-270.34820215 81.37724659 -270.34820215 81.37724659 -267.97216797 84.1940918 C-264.51698149 86.67000554 -262.89282883 86.80789242 -258.6875 86.63671875 C-257.44935547 86.60707031 -256.21121094 86.57742188 -254.93554688 86.546875 C-253.64841797 86.49144531 -252.36128906 86.43601562 -251.03515625 86.37890625 C-234.73101224 85.7617673 -222.17630319 87.87179831 -209.66015625 98.87890625 C-204.44340925 104.24417274 -201.23051006 110.87556536 -197.90258789 117.51025391 C-197.46551514 118.36409668 -197.02844238 119.21793945 -196.578125 120.09765625 C-196.19551514 120.87302734 -195.81290527 121.64839844 -195.41870117 122.44726562 C-194.22751831 124.41033624 -194.22751831 124.41033624 -192.05883789 125.07421875 C-189.33692019 125.32360645 -188.44800268 124.45501328 -186.34765625 122.75390625 C-185.64640625 122.19703125 -184.94515625 121.64015625 -184.22265625 121.06640625 C-182.86420347 119.90772594 -181.52793983 118.72217092 -180.22265625 117.50390625 C-169.66191944 107.64721856 -158.8982372 104.76141463 -144.85546875 104.96875 C-136.24957518 105.31195097 -128.51503879 108.17640431 -120.66015625 111.56640625 C-116.43403268 113.31514704 -113.56553417 113.77298474 -109.09765625 112.25390625 C-105.49464315 108.42030031 -103.43715128 104.13993449 -101.22265625 99.44140625 C-94.65208045 86.02913131 -86.87311584 77.88290323 -72.65234375 72.25 C-65.98817875 70.38256915 -59.14230356 69.96231315 -52.26318359 69.44335938 C-49.1847022 69.17403564 -46.15099107 68.72678588 -43.09765625 68.25390625 C-43.11860352 67.47901855 -43.13955078 66.70413086 -43.16113281 65.90576172 C-44.04112785 28.43913765 -44.04112785 28.43913765 -30.03125 12.97265625 C-21.51127212 4.80323202 -11.51350354 1.39362706 0 0 Z " fill="#8F6259" transform="translate(418.09765625,214.74609375)"/>
<path d="M0 0 C0 0.33 0 0.66 0 1 C-0.9178125 1.03738281 -1.835625 1.07476562 -2.78125 1.11328125 C-9.74838199 1.48652046 -15.69546653 1.90954241 -22 5 C-22.33 5.66 -22.66 6.32 -23 7 C-23.66 7 -24.32 7 -25 7 C-25.33 8.32 -25.66 9.64 -26 11 C-26.53625 11.061875 -27.0725 11.12375 -27.625 11.1875 C-31.11156962 12.38027382 -33.24940393 14.56197166 -36 17 C-36.66 16.67 -37.32 16.34 -38 16 C-25.54009815 4.01385867 -17.58331869 -1.1015072 0 0 Z " fill="#84645E" transform="translate(350,388)"/>
<path d="M0 0 C0.33 0 0.66 0 1 0 C1.04487549 0.65073486 1.08975098 1.30146973 1.13598633 1.97192383 C1.34729628 4.92000035 1.5796443 7.86605034 1.8125 10.8125 C1.88275391 11.83666016 1.95300781 12.86082031 2.02539062 13.91601562 C2.10595703 14.89892578 2.18652344 15.88183594 2.26953125 16.89453125 C2.33760986 17.80050049 2.40568848 18.70646973 2.47583008 19.63989258 C3.08209499 22.36963775 4.02126122 23.123895 6 25 C5.73202649 27.00980131 5.39013716 29.0103005 5 31 C5.37617294 34.26410357 5.37617294 34.26410357 6 37 C3.13638467 34.13638467 2.73545682 30.77443501 1.875 26.9375 C1.69614258 26.1448877 1.51728516 25.35227539 1.33300781 24.53564453 C-0.3711274 16.32820475 -0.38004337 8.3398406 0 0 Z " fill="#83645D" transform="translate(31,263)"/>
<path d="M0 0 C0.93423645 3.01031744 1.04449911 3.86650268 0 7 C-0.66 7 -1.32 7 -2 7 C-2.2475 7.5775 -2.495 8.155 -2.75 8.75 C-4.16683317 11.3002997 -5.87627537 13.01785701 -8 15 C-8.66 14.67 -9.32 14.34 -10 14 C-9.52949219 13.49210937 -9.05898438 12.98421875 -8.57421875 12.4609375 C-4.98265595 8.49014136 -2.0977575 4.93590001 0 0 Z " fill="#85615D" transform="translate(410,358)"/>
<path d="M0 0 C0.66 0 1.32 0 2 0 C1.67 1.65 1.34 3.3 1 5 C0.34 5 -0.32 5 -1 5 C-1 5.66 -1 6.32 -1 7 C-1.66 7 -2.32 7 -3 7 C-3 7.66 -3 8.32 -3 9 C-4.32 9.33 -5.64 9.66 -7 10 C-7.33 9.34 -7.66 8.68 -8 8 C-6.8553125 7.4121875 -6.8553125 7.4121875 -5.6875 6.8125 C-2.74308242 4.82673 -1.72532946 3.03986619 0 0 Z " fill="#401D1A" transform="translate(386,288)"/>
<path d="M0 0 C0 0.99 0 1.98 0 3 C-3.5460927 5.80388725 -6.4926374 7.46972205 -11 8 C-7.45960866 5.0843836 -3.8373228 2.49872182 0 0 Z " fill="#82615C" transform="translate(456,306)"/>
<path d="M0 0 C4.82142857 5.78571429 4.82142857 5.78571429 6 9 C5.67 9.99 5.34 10.98 5 12 C3 9 3 9 3 6 C2.01 5.67 1.02 5.34 0 5 C0 3.35 0 1.7 0 0 Z " fill="#81605A" transform="translate(482,225)"/>
<path d="M0 0 C0 3.69418201 -1.28179295 5.77836178 -3 9 C-4.32 8.34 -5.64 7.68 -7 7 C-4.69 4.69 -2.38 2.38 0 0 Z " fill="#805F59" transform="translate(464,298)"/>
<path d="M0 0 C0 0.66 0 1.32 0 2 C-0.66 2 -1.32 2 -2 2 C-2.33 2.66 -2.66 3.32 -3 4 C-3 3.34 -3 2.68 -3 2 C-6.63 2.33 -10.26 2.66 -14 3 C-13.67 2.34 -13.34 1.68 -13 1 C-10.8203125 0.5859375 -10.8203125 0.5859375 -8.125 0.375 C-7.24070313 0.30023438 -6.35640625 0.22546875 -5.4453125 0.1484375 C-3.63287027 0.03841705 -1.81577843 0 0 0 Z " fill="#82605A" transform="translate(189,403)"/>
<path d="M0 0 C0 3.63327194 -0.95586411 5.04735927 -3 8 C-3.99 8.66 -4.98 9.32 -6 10 C-4.6302836 6.00499382 -2.74277578 3.19990508 0 0 Z " fill="#3F1A16" transform="translate(397,239)"/>
<path d="M0 0 C1.32 0.33 2.64 0.66 4 1 C1.69 2.65 -0.62 4.3 -3 6 C-3.66 5.67 -4.32 5.34 -5 5 C-2.75 2.4375 -2.75 2.4375 0 0 Z " fill="#7E625A" transform="translate(312,419)"/>
<path d="M0 0 C-5.75 4 -5.75 4 -8 4 C-7.67 2.68 -7.34 1.36 -7 0 C-3.98968256 -0.93423645 -3.13349732 -1.04449911 0 0 Z " fill="#82625C" transform="translate(244,314)"/>
<path d="" fill="#FFFFFF" transform="translate(0,0)"/>
<path d="" fill="#FFFFFF" transform="translate(0,0)"/>
<path d="" fill="#FFFFFF" transform="translate(0,0)"/>
<path d="" fill="#FFFFFF" transform="translate(0,0)"/>
<path d="" fill="#FFFFFF" transform="translate(0,0)"/>
<path d="" fill="#FFFFFF" transform="translate(0,0)"/>
<path d="" fill="#FFFFFF" transform="translate(0,0)"/>
<path d="" fill="#FFFFFF" transform="translate(0,0)"/>
<path d="" fill="#FFFFFF" transform="translate(0,0)"/>
<path d="" fill="#FFFFFF" transform="translate(0,0)"/>
<path d="" fill="#FFFFFF" transform="translate(0,0)"/>
<path d="" fill="#FFFFFF" transform="translate(0,0)"/>
<path d="" fill="#FFFFFF" transform="translate(0,0)"/>
<path d="" fill="#FFFFFF" transform="translate(0,0)"/>
<path d="" fill="#FFFFFF" transform="translate(0,0)"/>
<path d="" fill="#FFFFFF" transform="translate(0,0)"/>
<path d="" fill="#FFFFFF" transform="translate(0,0)"/>
<path d="" fill="#FFFFFF" transform="translate(0,0)"/>
<path d="" fill="#FFFFFF" transform="translate(0,0)"/>
<path d="" fill="#FFFFFF" transform="translate(0,0)"/>
<path d="" fill="#FFFFFF" transform="translate(0,0)"/>
<path d="" fill="#FFFFFF" transform="translate(0,0)"/>
<path d="" fill="#FFFFFF" transform="translate(0,0)"/>
<path d="" fill="#FFFFFF" transform="translate(0,0)"/>
<path d="" fill="#FFFFFF" transform="translate(0,0)"/>
<path d="" fill="#FFFFFF" transform="translate(0,0)"/>
<path d="" fill="#FFFFFF" transform="translate(0,0)"/>
<path d="" fill="#FFFFFF" transform="translate(0,0)"/>
<path d="" fill="#FFFFFF" transform="translate(0,0)"/>
<path d="" fill="#FFFFFF" transform="translate(0,0)"/>
<path d="" fill="#FFFFFF" transform="translate(0,0)"/>
<path d="" fill="#FFFFFF" transform="translate(0,0)"/>
<path d="" fill="#FFFFFF" transform="translate(0,0)"/>
<path d="" fill="#FFFFFF" transform="translate(0,0)"/>
<path d="" fill="#FFFFFF" transform="translate(0,0)"/>
<path d="" fill="#FFFFFF" transform="translate(0,0)"/>
<path d="" fill="#FFFFFF" transform="translate(0,0)"/>
<path d="" fill="#FFFFFF" transform="translate(0,0)"/>
<path d="" fill="#FFFFFF" transform="translate(0,0)"/>
<path d="" fill="#FFFFFF" transform="translate(0,0)"/>
<path d="" fill="#FFFFFF" transform="translate(0,0)"/>
<path d="" fill="#FFFFFF" transform="translate(0,0)"/>
<path d="" fill="#FFFFFF" transform="translate(0,0)"/>
<path d="" fill="#FFFFFF" transform="translate(0,0)"/>
<path d="" fill="#FFFFFF" transform="translate(0,0)"/>
<path d="" fill="#FFFFFF" transform="translate(0,0)"/>
<path d="" fill="#FFFFFF" transform="translate(0,0)"/>
<path d="" fill="#FFFFFF" transform="translate(0,0)"/>
<path d="" fill="#FFFFFF" transform="translate(0,0)"/>
<path d="" fill="#FFFFFF" transform="translate(0,0)"/>
<path d="" fill="#FFFFFF" transform="translate(0,0)"/>
<path d="" fill="#FFFFFF" transform="translate(0,0)"/>
<path d="" fill="#FFFFFF" transform="translate(0,0)"/>
<path d="" fill="#FFFFFF" transform="translate(0,0)"/>
<path d="" fill="#FFFFFF" transform="translate(0,0)"/>
<path d="" fill="#FFFFFF" transform="translate(0,0)"/>
<path d="" fill="#FFFFFF" transform="translate(0,0)"/>
<path d="" fill="#FFFFFF" transform="translate(0,0)"/>
<path d="" fill="#FFFFFF" transform="translate(0,0)"/>
<path d="" fill="#FFFFFF" transform="translate(0,0)"/>
<path d="" fill="#FFFFFF" transform="translate(0,0)"/>
<path d="" fill="#FFFFFF" transform="translate(0,0)"/>
<path d="" fill="#FFFFFF" transform="translate(0,0)"/>
<path d="" fill="#FFFFFF" transform="translate(0,0)"/>
<path d="" fill="#FFFFFF" transform="translate(0,0)"/>
<path d="" fill="#FFFFFF" transform="translate(0,0)"/>
<path d="" fill="#FFFFFF" transform="translate(0,0)"/>
<path d="" fill="#FFFFFF" transform="translate(0,0)"/>
<path d="" fill="#FFFFFF" transform="translate(0,0)"/>
<path d="" fill="#FFFFFF" transform="translate(0,0)"/>
</svg>
